<?xml version="1.0" encoding="utf-8"?>
<!-- Generator: Adobe Illustrator 16.0.0, SVG Export Plug-In . SVG Version: 6.00 Build 0)  -->
<!DOCTYPE svg PUBLIC "-//W3C//DTD SVG 1.1//EN" "http://www.w3.org/Graphics/SVG/1.1/DTD/svg11.dtd">
<svg version="1.1" id="Layer_1" xmlns="http://www.w3.org/2000/svg" xmlns:xlink="http://www.w3.org/1999/xlink" x="0px" y="0px"
	 width="24px" height="24px" viewBox="0 0 24 24" enable-background="new 0 0 24 24" xml:space="preserve">
<path fill="none" d="M0,0h24v24H0V0z"/>
<path fill="#2948CC" d="M16.5,12c0-1.77-1.02-3.29-2.5-4.03v2.21l2.45,2.45C16.48,12.43,16.5,12.22,16.5,12z M19,12
	c0,0.939-0.2,1.82-0.54,2.641l1.511,1.51C20.63,14.91,21,13.5,21,12c0-4.28-2.99-7.86-7-8.77v2.06C16.891,6.15,19,8.83,19,12z
	 M4.27,3L3,4.27L7.73,9H3v6h4l5,5v-6.73l4.25,4.25C15.58,18.04,14.83,18.45,14,18.7v2.06c1.38-0.31,2.63-0.949,3.689-1.81L19.73,21
	L21,19.73l-9-9L4.27,3z M12,4L9.91,6.09L12,8.18V4z"/>
</svg>
