<?xml version="1.0" encoding="utf-8"?>
<!-- Generator: Adobe Illustrator 16.0.0, SVG Export Plug-In . SVG Version: 6.00 Build 0)  -->
<!DOCTYPE svg PUBLIC "-//W3C//DTD SVG 1.1//EN" "http://www.w3.org/Graphics/SVG/1.1/DTD/svg11.dtd">
<svg version="1.1" id="Layer_1" xmlns="http://www.w3.org/2000/svg" xmlns:xlink="http://www.w3.org/1999/xlink" x="0px" y="0px"
	 width="36px" height="36px" viewBox="0 0 36 36" enable-background="new 0 0 36 36" xml:space="preserve">
<path fill="none" d="M0,0h36v36H0V0z"/>
<path fill="#2948CC" d="M30,6H6C4.35,6,3,7.35,3,9v18c0,1.65,1.35,3,3,3h24c1.65,0,3-1.35,3-3V9C33,7.35,31.65,6,30,6z M6,18h6v3H6
	V18z M21,27H6v-3h15V27z M30,27h-6v-3h6V27z M30,21H15v-3h15V21z"/>
</svg>
