<?xml version="1.0" encoding="utf-8"?>
<!-- Generator: Adobe Illustrator 16.0.0, SVG Export Plug-In . SVG Version: 6.00 Build 0)  -->
<!DOCTYPE svg PUBLIC "-//W3C//DTD SVG 1.1//EN" "http://www.w3.org/Graphics/SVG/1.1/DTD/svg11.dtd">
<svg version="1.1" id="Layer_1" xmlns="http://www.w3.org/2000/svg" xmlns:xlink="http://www.w3.org/1999/xlink" x="0px" y="0px"
	 width="24px" height="24px" viewBox="0 0 24 24" enable-background="new 0 0 24 24" xml:space="preserve">
<g>
	<rect fill="none" width="24" height="24"/>
</g>
<g>
	<polygon points="10,8 10,14 14.7,16.9 15.5,15.7 11.5,13.3 11.5,8 	"/>
	<path d="M17.92,12c0.051,0.33,0.08,0.66,0.08,1c0,3.9-3.1,7-7,7c-3.9,0-7-3.1-7-7c0-3.9,3.1-7,7-7c0.7,0,1.37,0.1,2,0.29V4.23
		C12.36,4.08,11.69,4,11,4c-5,0-9,4-9,9s4,9,9,9s9-4,9-9c0-0.34-0.02-0.67-0.061-1H17.92z"/>
</g>
<path d="M23.781,7.32l-1.069-0.83c0.021-0.16,0.04-0.32,0.04-0.49s-0.01-0.33-0.04-0.49l1.06-0.83c0.09-0.08,0.12-0.209,0.061-0.32
	l-1-1.729c-0.061-0.11-0.19-0.149-0.311-0.11l-1.24,0.5c-0.26-0.199-0.539-0.369-0.85-0.49L20.242,1.21
	C20.232,1.09,20.121,1,20.002,1h-2c-0.12,0-0.23,0.09-0.25,0.21l-0.19,1.319c-0.3,0.131-0.59,0.291-0.85,0.49l-1.24-0.5
	c-0.11-0.039-0.239,0-0.31,0.11l-1,1.729c-0.061,0.111-0.041,0.24,0.06,0.32l1.06,0.83c-0.02,0.16-0.029,0.32-0.029,0.49
	s0.01,0.33,0.029,0.49l-1.06,0.83c-0.09,0.08-0.12,0.209-0.06,0.32l1,1.729c0.06,0.11,0.189,0.149,0.31,0.11l1.24-0.5
	c0.26,0.199,0.54,0.369,0.85,0.49l0.19,1.319c0.02,0.12,0.119,0.21,0.25,0.21h2c0.119,0,0.23-0.09,0.25-0.21l0.189-1.319
	c0.301-0.131,0.59-0.291,0.84-0.49l1.25,0.5c0.11,0.039,0.24,0,0.311-0.11l1-1.729C23.902,7.529,23.871,7.4,23.781,7.32z
	 M19.002,7.5c-0.83,0-1.5-0.67-1.5-1.5s0.67-1.5,1.5-1.5s1.5,0.67,1.5,1.5S19.832,7.5,19.002,7.5z"/>
</svg>
